# xmcd
#
# Track frame offsets:
# 150
# 14383
# 29295
# 42772
# 56388
# 70410
# 80222
# 92772
# 105755
# 125378
#
# Disc length: 1869 seconds
#
#
# Revision: 0
# Processed by: cddbd v1.5.1PL2 Copyright (c) Steve Scherf et al.
# Submitted via: FreeRIP 2.945 
#
DISCID=77074b0a
DTITLE=Gene Watson - Back In The Fire
DYEAR=1989
DGENRE=Country
TTITLE0=Back In The Fire
TTITLE1=Some Where Over You
TTITLE2=The Jukebox Played Along
TTITLE3=Dreams Of A Dreamer
TTITLE4=Don't Waste It On The Blues
TTITLE5=Ain't No Fun Being Alone Down In San Antone
TTITLE6=Just How Little I Know
TTITLE7=She Found The Key
TTITLE8=Across The Great Divide
TTITLE9=When A Fool Learns
EXTD=
EXTT0=
EXTT1=
EXTT2=
EXTT3=
EXTT4=
EXTT5=
EXTT6=
EXTT7=
EXTT8=
EXTT9=
PLAYORDER=
